<?xml version="1.0" encoding="UTF-8"?>
<!DOCTYPE svg PUBLIC "-//W3C//DTD SVG 1.1//EN" "http://www.w3.org/Graphics/SVG/1.1/DTD/svg11.dtd">
<!-- Creator: CorelDRAW -->
<svg xmlns="http://www.w3.org/2000/svg" xml:space="preserve" width="6.82666in" height="6.82666in" style="shape-rendering:geometricPrecision; text-rendering:geometricPrecision; image-rendering:optimizeQuality; fill-rule:evenodd; clip-rule:evenodd"
viewBox="0 0 6.82666 6.82666"
 xmlns:xlink="http://www.w3.org/1999/xlink">
 <defs>
  <style type="text/css">
   <![CDATA[
    .fil0 {fill:#FF5722}
    .fil1 {fill:#FFFFFE}
   ]]>
  </style>
 </defs>
 <g id="Layer_x0020_1">
  <metadata id="CorelCorpID_0Corel-Layer"/>
  <circle class="fil0" cx="3.41333" cy="3.41333" r="3.41333"/>
  <g id="_617905232">
   <path id="_617905568" class="fil1" d="M2.74541 3.45053c-0.12028,-0.139492 -0.224567,-0.328602 -0.25972,-0.509642l-0.00387795 -0.0199882 0.0145039 -0.0142874c0.118217,-0.116449 0.185799,-0.293492 0.235543,-0.448138l0.00867717 -0.0269764 0.0283307 0.000653543c0.114429,0.00263386 0.229504,0.00780709 0.343327,0.0201732 0.0915827,0.00994882 0.183094,0.0247717 0.272087,0.0488976 0.159913,0.0433465 0.29072,0.112776 0.421909,0.213634l0.0156535 0.0120354 -0.000866142 0.0197244c-0.00976378,0.222358 -0.101504,0.470539 -0.229374,0.652882 -0.0463858,0.0661496 -0.099748,0.133201 -0.165618,0.180917 -0.00295669,0.00214173 -0.00582677,0.00440157 -0.00860236,0.00677165 -0.0765197,0.0654331 -0.171449,0.103299 -0.2725,0.103299 -0.10115,0 -0.19872,-0.0523661 -0.27376,-0.116811 -0.00167323,-0.00143701 -0.00338189,-0.00282677 -0.00512205,-0.00417717 -0.0445354,-0.0344921 -0.0838819,-0.0764016 -0.120591,-0.118969zm-0.0073189 0.58963c0.137882,-0.0592126 0.17224,-0.119661 0.180161,-0.299138 0.0743858,0.0402165 0.15111,0.0633543 0.22663,0.0633543 0.079189,0 0.154866,-0.019626 0.22585,-0.0544606 0.00653937,0.176764 0.0373189,0.230122 0.176772,0.289449 0.0359646,-0.0267638 0.072374,-0.0528937 0.109295,-0.0777835 0.0352677,-0.0237717 0.099626,-0.0679331 0.149472,-0.0775079l0 -0.173961c0,-0.0523898 0.0425118,-0.0949016 0.0949016,-0.0949016l0.389972 0c-0.00513386,-0.563783 -0.0464134,-1.20646 -0.310807,-1.63102 -0.092685,-0.148843 -0.206244,-0.25828 -0.34561,-0.330866 -0.13815,-0.0719606 -0.299807,-0.106669 -0.489846,-0.106669 -0.190028,0 -0.351669,0.0347087 -0.489823,0.106669 -0.139362,0.0725866 -0.252929,0.182024 -0.345626,0.330866 -0.155465,0.249665 -0.239787,0.639752 -0.285043,1.04285 -0.0385315,0.343205 -0.0489646,0.713524 -0.0511024,0.999343 0.0382244,-0.0239409 0.0802323,-0.0419173 0.124701,-0.0530394 0.0268622,-0.00671654 0.0538622,-0.0151102 0.0804961,-0.0227874 0.0398346,-0.0114764 0.0797638,-0.0226575 0.119992,-0.032685 0.0468661,-0.0116772 0.0958622,-0.0226457 0.143913,-0.0277756 0.0412874,-0.00440157 0.093622,-0.00598819 0.128213,0.0207244l0.167488 0.129331z"/>
   <path id="_617905424" class="fil1" d="M2.37559 5.19089l1.43067 0 0 -1.24844c-0.122295,0.0394528 -0.573252,0.420638 -0.658205,0.486236l-0.612264 -0.472783c-0.0546102,-0.0473071 -0.347307,0.0535236 -0.424004,0.0727008 -0.0835945,0.0209016 -0.154728,0.0689173 -0.205047,0.133354 -0.0503976,0.0645472 -0.0797756,0.145197 -0.0797756,0.23126l0 0.797681 0.473287 0c0.0134016,-0.129929 0.0268031,-0.259858 0.0402047,-0.389787l0.0351299 0.389783z"/>
   <path id="_617905376" class="fil1" d="M4.99969 5.24204l0 -1.53192c0,-0.0209646 -0.0169961,-0.0379606 -0.0379606,-0.0379606l-1.06056 0c-0.0209646,0 -0.0379646,0.0169961 -0.0379646,0.0379606l0 1.53192c0,0.0209646 0.017,0.0379646 0.0379646,0.0379646l1.06056 0c0.0209646,0 0.0379606,-0.017 0.0379606,-0.0379646zm-0.707059 -1.19879c0.0209606,0 0.0379606,0.017 0.0379606,0.0379606 0,0.0209646 -0.017,0.0379646 -0.0379606,0.0379646l-0.216146 0c-0.0209646,0 -0.0379646,-0.017 -0.0379646,-0.0379646 0,-0.0209606 0.017,-0.0379606 0.0379646,-0.0379606l0.216146 0zm-0.216146 0.144933l0.709929 0c0.0209646,0 0.0379646,0.0169961 0.0379646,0.0379606 0,0.0209646 -0.017,0.0379606 -0.0379646,0.0379606l-0.709929 0c-0.0209646,0 -0.0379646,-0.0169961 -0.0379646,-0.0379606 0,-0.0209646 0.017,-0.0379606 0.0379646,-0.0379606zm0 0.144134l0.709929 0c0.0209646,0 0.0379646,0.0169961 0.0379646,0.0379606 0,0.0209646 -0.017,0.0379606 -0.0379646,0.0379606l-0.709929 0c-0.0209646,0 -0.0379646,-0.0169961 -0.0379646,-0.0379606 0,-0.0209646 0.017,-0.0379606 0.0379646,-0.0379606zm0 -0.433201l0.216146 0c0.0209606,0 0.0379606,0.017 0.0379606,0.0379606 0,0.0209646 -0.017,0.0379646 -0.0379606,0.0379646l-0.216146 0c-0.0209646,0 -0.0379646,-0.017 -0.0379646,-0.0379646 0,-0.0209606 0.017,-0.0379606 0.0379646,-0.0379606zm0 0.724547l0.709929 0c0.0209646,0 0.0379646,0.0169961 0.0379646,0.0379606 0,0.0209646 -0.017,0.0379606 -0.0379646,0.0379606l-0.709929 0c-0.0209646,0 -0.0379646,-0.0169961 -0.0379646,-0.0379606 0,-0.0209646 0.017,-0.0379606 0.0379646,-0.0379606zm0 0.140067l0.709929 0c0.0209646,0 0.0379646,0.017 0.0379646,0.0379606 0,0.0209646 -0.017,0.0379646 -0.0379646,0.0379646l-0.709929 0c-0.0209646,0 -0.0379646,-0.017 -0.0379646,-0.0379646 0,-0.0209606 0.017,-0.0379606 0.0379646,-0.0379606zm0 0.21565l0.216146 0c0.0209606,0 0.0379606,0.017 0.0379606,0.0379646 0,0.0209606 -0.017,0.0379606 -0.0379606,0.0379606l-0.216146 0c-0.0209646,0 -0.0379646,-0.017 -0.0379646,-0.0379606 0,-0.0209646 0.017,-0.0379646 0.0379646,-0.0379646z"/>
  </g>
 </g>
</svg>
